<?xml version="1.0" standalone="no"?>
<!DOCTYPE svg PUBLIC "-//W3C//DTD SVG 20010904//EN"
 "http://www.w3.org/TR/2001/REC-SVG-20010904/DTD/svg10.dtd">
<svg version="1.0" xmlns="http://www.w3.org/2000/svg"
 width="700.000000pt" height="700.000000pt" viewBox="0 0 700.000000 700.000000"
 preserveAspectRatio="xMidYMid meet">
<metadata>
Created by potrace 1.14, written by Peter Selinger 2001-2017
</metadata>
<g transform="translate(0.000000,700.000000) scale(0.100000,-0.100000)"
fill="#000000" stroke="none">
<path d="M1964 6990 c-30 -12 -31 -20 -30 -154 2 -143 4 -146 115 -147 42 0
85 -2 96 -3 126 -17 182 -34 291 -88 83 -41 201 -152 237 -224 29 -58 62 -187
53 -209 -14 -37 -80 -2 -206 109 -41 36 -80 66 -86 66 -14 0 -7 -36 36 -175
17 -55 29 -109 26 -120 -3 -11 -22 -31 -43 -45 -102 -68 -380 -349 -428 -432
-21 -37 -47 -69 -58 -72 -21 -5 -111 8 -163 25 -53 16 -124 19 -124 4 0 -18
41 -67 117 -141 72 -69 71 -66 19 -181 -69 -154 -108 -294 -120 -432 -12 -132
-25 -170 -59 -172 -17 -1 -37 -4 -497 -85 -120 -21 -234 -46 -243 -54 -4 -4
43 -19 106 -34 117 -28 134 -31 202 -40 22 -2 60 -9 85 -15 64 -14 101 -21
135 -27 57 -9 200 -35 218 -41 26 -7 43 -55 52 -143 12 -131 15 -154 31 -210
23 -83 73 -215 105 -281 16 -32 29 -68 29 -79 0 -14 -32 -54 -85 -108 -47 -48
-85 -92 -85 -98 0 -6 -7 -17 -15 -24 -28 -23 -15 -29 33 -15 26 8 65 17 87 20
22 4 47 8 55 10 20 6 90 17 115 19 14 1 32 -18 63 -64 23 -36 64 -87 90 -115
74 -78 282 -270 329 -304 65 -47 65 -50 24 -191 -21 -69 -41 -135 -45 -147 -5
-16 -3 -23 5 -23 11 0 95 66 179 140 69 62 86 70 104 57 9 -7 21 -36 26 -67 6
-33 8 -414 5 -955 -4 -862 -5 -904 -24 -989 -12 -49 -27 -99 -35 -110 -50 -77
-168 -188 -233 -222 -21 -10 -49 -26 -63 -36 -68 -44 -163 -63 -373 -72 -31
-1 -63 -8 -69 -14 -14 -14 -18 -256 -4 -269 7 -7 2493 -11 2929 -4 145 3 202
7 211 17 17 16 18 240 2 253 -6 5 -47 12 -91 15 -206 16 -237 23 -358 81 -136
65 -220 142 -277 255 -46 91 -70 179 -77 275 -6 103 -10 1709 -3 1785 5 61 7
65 31 68 22 3 41 -12 105 -75 88 -88 141 -133 155 -133 15 0 11 22 -32 165
-24 80 -38 145 -35 158 4 12 37 43 74 69 37 27 83 63 102 81 39 37 250 261
300 320 49 56 61 60 133 43 83 -20 128 -28 211 -40 46 -7 48 -7 35 11 -8 11
-54 57 -104 104 -49 46 -100 94 -112 106 l-23 22 19 48 c11 26 38 93 61 148
22 55 54 151 70 213 30 114 33 129 46 215 10 75 23 84 159 111 66 13 134 26
150 29 225 37 467 86 479 98 15 14 -69 40 -179 55 -27 3 -59 8 -70 10 -11 2
-36 7 -55 10 -19 3 -78 14 -130 24 -52 10 -115 21 -140 24 -124 15 -199 40
-205 69 -6 30 -23 125 -30 166 -20 122 -96 342 -144 422 -12 19 -21 42 -21 52
0 11 51 68 115 131 63 62 115 115 115 118 0 10 -96 0 -206 -23 l-112 -22 -29
34 c-149 179 -303 338 -430 443 -46 37 -83 72 -83 77 0 4 7 30 16 56 26 75 64
216 64 237 0 15 -12 8 -57 -30 -32 -26 -83 -73 -113 -104 -74 -76 -98 -83
-107 -30 -4 27 28 114 89 238 61 124 221 226 419 268 13 2 77 7 141 11 64 3
123 10 130 14 9 6 14 39 16 105 5 124 -3 183 -26 183 -281 6 -3093 8 -3108 1z
m1731 -1004 c54 -7 216 -46 277 -67 66 -22 303 -138 352 -171 17 -12 51 -40
76 -62 25 -23 74 -65 109 -95 113 -97 172 -165 218 -251 16 -30 39 -71 51 -90
56 -89 133 -254 161 -345 51 -169 66 -289 65 -515 0 -127 -5 -172 -23 -245
-48 -188 -100 -313 -204 -488 -26 -43 -47 -82 -47 -85 0 -14 -70 -108 -117
-158 -65 -70 -234 -216 -297 -258 -155 -102 -365 -189 -536 -219 -14 -3 -41
-8 -60 -12 -19 -3 -48 -8 -65 -10 -39 -5 -284 -6 -310 -1 -11 2 -42 7 -70 11
-27 5 -52 9 -55 10 -109 22 -154 35 -248 72 -146 58 -224 100 -345 189 -143
105 -214 171 -260 238 -22 33 -66 94 -97 136 -158 209 -237 406 -257 639 -9
101 -9 395 0 501 13 156 58 307 125 420 14 25 27 47 27 50 5 23 112 176 158
225 10 11 27 36 38 55 33 63 136 157 294 272 181 132 445 235 651 254 38 4 71
8 73 11 5 4 269 -5 316 -11z"/>
<path d="M3459 5656 c-2 -2 -44 -6 -94 -9 -139 -10 -244 -39 -405 -115 -114
-54 -213 -127 -298 -220 -235 -258 -265 -317 -327 -642 -20 -101 -26 -270 -13
-345 4 -22 10 -58 13 -80 11 -74 14 -87 36 -184 37 -163 96 -257 302 -483 83
-91 129 -124 282 -201 131 -66 205 -91 343 -115 202 -36 415 -11 632 75 102
41 277 159 378 257 114 109 304 464 327 608 4 24 9 57 12 73 23 138 15 304
-22 445 -9 36 -18 70 -19 75 -26 120 -207 427 -307 520 -60 56 -114 97 -239
179 -125 83 -346 151 -500 155 -46 1 -87 4 -90 6 -4 3 -9 3 -11 1z m202 -350
c89 -21 281 -111 307 -144 11 -15 3 -26 -68 -93 -115 -109 -119 -110 -188 -72
-31 17 -80 36 -108 41 -106 19 -256 -2 -369 -53 -32 -14 -67 -25 -80 -25 -39
0 -165 145 -165 190 0 40 212 142 340 163 35 6 300 0 331 -7z m538 -396 c45
-70 88 -166 112 -251 24 -85 33 -255 18 -334 -5 -27 -12 -62 -14 -77 -17 -95
-126 -298 -159 -298 -17 0 -110 92 -143 141 l-25 38 20 58 c27 76 33 117 37
243 3 125 -7 214 -36 293 -14 40 -18 65 -12 82 10 32 102 140 128 153 29 13
38 7 74 -48z m-1373 18 c53 -41 154 -141 159 -159 3 -10 -6 -46 -20 -80 -68
-160 -64 -342 11 -493 13 -28 24 -56 24 -64 0 -17 -149 -163 -186 -182 -20
-11 -27 -11 -43 4 -32 29 -66 113 -94 231 -34 141 -41 199 -39 310 3 164 97
455 147 455 7 0 25 -10 41 -22z m756 -138 c47 -13 128 -56 128 -69 0 -5 13
-24 30 -42 16 -19 30 -40 30 -46 0 -7 4 -13 8 -13 16 0 46 -121 45 -182 -1
-116 -107 -277 -206 -311 -23 -8 -84 -15 -134 -16 -90 -2 -93 -1 -148 34 -158
100 -222 239 -183 393 28 115 142 226 268 262 32 9 106 5 162 -10z m-328 -879
c33 -16 90 -34 126 -39 58 -8 179 -8 220 1 64 14 86 22 123 43 23 13 52 24 64
24 26 0 203 -157 203 -181 0 -38 -269 -159 -385 -174 -54 -6 -185 -7 -225 -1
-81 12 -110 18 -159 32 -78 22 -140 52 -189 91 l-42 35 26 48 c29 54 84 111
129 134 39 21 37 21 109 -13z"/>
</g>
</svg>
